<svg xmlns="http://www.w3.org/2000/svg" width="820" height="420" viewBox="0 0 820 420"><rect width="820" height="420" fill="white"/><text x="70" y="24" font-family="Inter, Arial, sans-serif" font-size="16" fill="#111">Intrinsic retention at ~29× (pre-trained 2-stage)</text><text x="70" y="40" font-family="Inter, Arial, sans-serif" font-size="11" fill="#555">Source: docs/FINAL_BENCHMARK_TRUTH.md (Spearman vs original)</text><line x1="70" y1="350.0" x2="790" y2="350.0" stroke="#f3f4f6" stroke-width="1"/><text x="60" y="354.0" text-anchor="end" font-family="Inter, Arial, sans-serif" font-size="11" fill="#333">80</text><line x1="70" y1="276.25" x2="790" y2="276.25" stroke="#f3f4f6" stroke-width="1"/><text x="60" y="280.25" text-anchor="end" font-family="Inter, Arial, sans-serif" font-size="11" fill="#333">85</text><line x1="70" y1="202.5" x2="790" y2="202.5" stroke="#f3f4f6" stroke-width="1"/><text x="60" y="206.5" text-anchor="end" font-family="Inter, Arial, sans-serif" font-size="11" fill="#333">90</text><line x1="70" y1="128.75" x2="790" y2="128.75" stroke="#f3f4f6" stroke-width="1"/><text x="60" y="132.75" text-anchor="end" font-family="Inter, Arial, sans-serif" font-size="11" fill="#333">95</text><line x1="70" y1="55.0" x2="790" y2="55.0" stroke="#f3f4f6" stroke-width="1"/><text x="60" y="59.0" text-anchor="end" font-family="Inter, Arial, sans-serif" font-size="11" fill="#333">100</text><line x1="70" y1="350" x2="790" y2="350" stroke="#111" stroke-width="1"/><line x1="70" y1="350" x2="70" y2="55" stroke="#111" stroke-width="1"/><text x="70" y="410" font-family="Inter, Arial, sans-serif" font-size="11" fill="#333">Compression (×)</text><text x="12" y="67" font-family="Inter, Arial, sans-serif" font-size="11" fill="#333">Quality (%)</text><rect x="70.00" y="220.20" width="134.40" height="129.80" fill="#10b981"/><text x="137.20" y="212.20" text-anchor="middle" font-family="Inter, Arial, sans-serif" font-size="11" fill="#111">88.8%</text><text x="137.20" y="372" text-anchor="middle" font-family="Inter, Arial, sans-serif" font-size="11" fill="#111">MiniLM</text><rect x="216.40" y="133.17" width="134.40" height="216.83" fill="#10b981"/><text x="283.60" y="125.17" text-anchor="middle" font-family="Inter, Arial, sans-serif" font-size="11" fill="#111">94.7%</text><text x="283.60" y="372" text-anchor="middle" font-family="Inter, Arial, sans-serif" font-size="11" fill="#111">MPNet</text><rect x="362.80" y="130.22" width="134.40" height="219.78" fill="#10b981"/><text x="430.00" y="122.22" text-anchor="middle" font-family="Inter, Arial, sans-serif" font-size="11" fill="#111">94.9%</text><text x="430.00" y="372" text-anchor="middle" font-family="Inter, Arial, sans-serif" font-size="11" fill="#111">E5-Large</text><rect x="509.20" y="97.78" width="134.40" height="252.22" fill="#10b981"/><text x="576.40" y="89.78" text-anchor="middle" font-family="Inter, Arial, sans-serif" font-size="11" fill="#111">97.1%</text><text x="576.40" y="372" text-anchor="middle" font-family="Inter, Arial, sans-serif" font-size="11" fill="#111">Audio</text><rect x="655.60" y="146.45" width="134.40" height="203.55" fill="#10b981"/><text x="722.80" y="138.45" text-anchor="middle" font-family="Inter, Arial, sans-serif" font-size="11" fill="#111">93.8%</text><text x="722.80" y="372" text-anchor="middle" font-family="Inter, Arial, sans-serif" font-size="11" fill="#111">Protein</text></svg>
