<svg xmlns="http://www.w3.org/2000/svg" width="720" height="420" viewBox="0 0 720 420"><rect width="720" height="420" fill="white"/><text x="70" y="24" font-family="Inter, Arial, sans-serif" font-size="16" fill="#111">Extrinsic quality vs compression (E5-Large, STS12–16 unseen avg)</text><text x="70" y="40" font-family="Inter, Arial, sans-serif" font-size="11" fill="#555">Source: docs/FINAL_BENCHMARK_TRUTH.md (generalization tests)</text><line x1="70" y1="370.0" x2="690" y2="370.0" stroke="#e5e7eb" stroke-width="1"/><text x="60" y="374.0" text-anchor="end" font-family="Inter, Arial, sans-serif" font-size="11" fill="#333">60</text><line x1="70" y1="287.5" x2="690" y2="287.5" stroke="#e5e7eb" stroke-width="1"/><text x="60" y="291.5" text-anchor="end" font-family="Inter, Arial, sans-serif" font-size="11" fill="#333">70</text><line x1="70" y1="205.0" x2="690" y2="205.0" stroke="#e5e7eb" stroke-width="1"/><text x="60" y="209.0" text-anchor="end" font-family="Inter, Arial, sans-serif" font-size="11" fill="#333">80</text><line x1="70" y1="122.5" x2="690" y2="122.5" stroke="#e5e7eb" stroke-width="1"/><text x="60" y="126.5" text-anchor="end" font-family="Inter, Arial, sans-serif" font-size="11" fill="#333">90</text><line x1="70" y1="40.0" x2="690" y2="40.0" stroke="#e5e7eb" stroke-width="1"/><text x="60" y="44.0" text-anchor="end" font-family="Inter, Arial, sans-serif" font-size="11" fill="#333">100</text><line x1="70.0" y1="40" x2="70.0" y2="370" stroke="#f3f4f6" stroke-width="1"/><text x="70.0" y="388" text-anchor="middle" font-family="Inter, Arial, sans-serif" font-size="11" fill="#333">1×</text><line x1="207.83668681850315" y1="40" x2="207.83668681850315" y2="370" stroke="#f3f4f6" stroke-width="1"/><text x="207.83668681850315" y="388" text-anchor="middle" font-family="Inter, Arial, sans-serif" font-size="11" fill="#333">3×</text><line x1="358.89236322010123" y1="40" x2="358.89236322010123" y2="370" stroke="#f3f4f6" stroke-width="1"/><text x="358.89236322010123" y="388" text-anchor="middle" font-family="Inter, Arial, sans-serif" font-size="11" fill="#333">10×</text><line x1="496.72905003860444" y1="40" x2="496.72905003860444" y2="370" stroke="#f3f4f6" stroke-width="1"/><text x="496.72905003860444" y="388" text-anchor="middle" font-family="Inter, Arial, sans-serif" font-size="11" fill="#333">30×</text><line x1="647.7847264402025" y1="40" x2="647.7847264402025" y2="370" stroke="#f3f4f6" stroke-width="1"/><text x="647.7847264402025" y="388" text-anchor="middle" font-family="Inter, Arial, sans-serif" font-size="11" fill="#333">100×</text><line x1="70" y1="370" x2="690" y2="370" stroke="#111" stroke-width="1"/><line x1="70" y1="370" x2="70" y2="40" stroke="#111" stroke-width="1"/><text x="70" y="410" font-family="Inter, Arial, sans-serif" font-size="11" fill="#333">Compression (×)</text><text x="12" y="52" font-family="Inter, Arial, sans-serif" font-size="11" fill="#333">Quality (%)</text><path d="M 70.00 175.58 L 492.48 215.45 L 667.48 215.45" stroke="#111" stroke-width="2" fill="none" stroke-linecap="round"/><circle cx="70.00" cy="175.58" r="6" fill="#111827"/><circle cx="492.48" cy="215.45" r="6" fill="#10b981"/><circle cx="667.48" cy="215.45" r="6" fill="#06b6d4"/><text x="80.00" y="165.58" font-family="Inter, Arial, sans-serif" font-size="12" fill="#111">Original (83.6%)</text><text x="502.48" y="205.45" font-family="Inter, Arial, sans-serif" font-size="12" fill="#111">AQEA 29× (78.7%)</text><text x="677.48" y="205.45" font-family="Inter, Arial, sans-serif" font-size="12" fill="#111">AQEA+PQ 117× (78.7%)</text></svg>
