<svg xmlns="http://www.w3.org/2000/svg" width="820" height="420" viewBox="0 0 820 420"><rect width="820" height="420" fill="white"/><text x="70" y="24" font-family="Inter, Arial, sans-serif" font-size="16" fill="#111">AQEA+PQ task preservation (human labels only)</text><text x="70" y="40" font-family="Inter, Arial, sans-serif" font-size="11" fill="#555">Source: benchmark artifact (models with human scores)</text><line x1="70" y1="350.0" x2="790" y2="350.0" stroke="#f3f4f6" stroke-width="1"/><text x="60" y="354.0" text-anchor="end" font-family="Inter, Arial, sans-serif" font-size="11" fill="#333">60</text><line x1="70" y1="313.125" x2="790" y2="313.125" stroke="#f3f4f6" stroke-width="1"/><text x="60" y="317.125" text-anchor="end" font-family="Inter, Arial, sans-serif" font-size="11" fill="#333">65</text><line x1="70" y1="276.25" x2="790" y2="276.25" stroke="#f3f4f6" stroke-width="1"/><text x="60" y="280.25" text-anchor="end" font-family="Inter, Arial, sans-serif" font-size="11" fill="#333">70</text><line x1="70" y1="239.375" x2="790" y2="239.375" stroke="#f3f4f6" stroke-width="1"/><text x="60" y="243.375" text-anchor="end" font-family="Inter, Arial, sans-serif" font-size="11" fill="#333">75</text><line x1="70" y1="202.5" x2="790" y2="202.5" stroke="#f3f4f6" stroke-width="1"/><text x="60" y="206.5" text-anchor="end" font-family="Inter, Arial, sans-serif" font-size="11" fill="#333">80</text><line x1="70" y1="165.625" x2="790" y2="165.625" stroke="#f3f4f6" stroke-width="1"/><text x="60" y="169.625" text-anchor="end" font-family="Inter, Arial, sans-serif" font-size="11" fill="#333">85</text><line x1="70" y1="128.75" x2="790" y2="128.75" stroke="#f3f4f6" stroke-width="1"/><text x="60" y="132.75" text-anchor="end" font-family="Inter, Arial, sans-serif" font-size="11" fill="#333">90</text><line x1="70" y1="91.875" x2="790" y2="91.875" stroke="#f3f4f6" stroke-width="1"/><text x="60" y="95.875" text-anchor="end" font-family="Inter, Arial, sans-serif" font-size="11" fill="#333">95</text><line x1="70" y1="55.0" x2="790" y2="55.0" stroke="#f3f4f6" stroke-width="1"/><text x="60" y="59.0" text-anchor="end" font-family="Inter, Arial, sans-serif" font-size="11" fill="#333">100</text><line x1="70" y1="350" x2="790" y2="350" stroke="#111" stroke-width="1"/><line x1="70" y1="350" x2="70" y2="55" stroke="#111" stroke-width="1"/><text x="70" y="410" font-family="Inter, Arial, sans-serif" font-size="11" fill="#333">Compression (×)</text><text x="12" y="67" font-family="Inter, Arial, sans-serif" font-size="11" fill="#333">Quality (%)</text><rect x="70.00" y="98.51" width="134.40" height="251.49" fill="#06b6d4"/><text x="137.20" y="90.51" text-anchor="middle" font-family="Inter, Arial, sans-serif" font-size="11" fill="#111">94.1%</text><text x="137.20" y="372" text-anchor="middle" font-family="Inter, Arial, sans-serif" font-size="11" fill="#111">E5-Large 1024D</text><rect x="216.40" y="92.61" width="134.40" height="257.39" fill="#06b6d4"/><text x="283.60" y="84.61" text-anchor="middle" font-family="Inter, Arial, sans-serif" font-size="11" fill="#111">94.9%</text><text x="283.60" y="372" text-anchor="middle" font-family="Inter, Arial, sans-serif" font-size="11" fill="#111">wav2vec2 768D</text><rect x="362.80" y="112.52" width="134.40" height="237.48" fill="#06b6d4"/><text x="430.00" y="104.52" text-anchor="middle" font-family="Inter, Arial, sans-serif" font-size="11" fill="#111">92.2%</text><text x="430.00" y="372" text-anchor="middle" font-family="Inter, Arial, sans-serif" font-size="11" fill="#111">MPNet 768D</text><rect x="509.20" y="130.23" width="134.40" height="219.77" fill="#06b6d4"/><text x="576.40" y="122.23" text-anchor="middle" font-family="Inter, Arial, sans-serif" font-size="11" fill="#111">89.8%</text><text x="576.40" y="372" text-anchor="middle" font-family="Inter, Arial, sans-serif" font-size="11" fill="#111">Mistral 1024D</text><rect x="655.60" y="291.74" width="134.40" height="58.26" fill="#06b6d4"/><text x="722.80" y="283.74" text-anchor="middle" font-family="Inter, Arial, sans-serif" font-size="11" fill="#111">67.9%</text><text x="722.80" y="372" text-anchor="middle" font-family="Inter, Arial, sans-serif" font-size="11" fill="#111">MiniLM 384D</text></svg>
